<?xml version="1.0" encoding="iso-8859-1"?>
<!-- Generator: Adobe Illustrator 19.0.0, SVG Export Plug-In . SVG Version: 6.00 Build 0)  -->
<svg version="1.1" id="Layer_1" xmlns="http://www.w3.org/2000/svg" xmlns:xlink="http://www.w3.org/1999/xlink" x="0px" y="0px"
	 viewBox="0 0 512 512" style="enable-background:new 0 0 512 512;" xml:space="preserve">
<g>
	<g>
		<g>
			<path d="M298.667,256c0-3.354-1.583-6.521-4.271-8.531l-128-96c-3.229-2.417-7.552-2.813-11.167-1.01
				c-3.615,1.813-5.896,5.5-5.896,9.542v192c0,4.042,2.281,7.729,5.896,9.542c1.51,0.75,3.146,1.125,4.771,1.125
				c2.26,0,4.521-0.719,6.396-2.135l128-96C297.083,262.521,298.667,259.354,298.667,256z M170.667,330.667V181.333L270.219,256
				L170.667,330.667z"/>
			<path d="M358.396,247.469l-128-96c-4.708-3.521-11.396-2.583-14.927,2.135c-3.542,4.708-2.583,11.396,2.135,14.927L334.219,256
				l-116.615,87.469c-4.719,3.531-5.677,10.219-2.135,14.927c2.094,2.802,5.292,4.271,8.542,4.271c2.229,0,4.469-0.698,6.385-2.135
				l128-96c2.688-2.01,4.271-5.177,4.271-8.531S361.083,249.479,358.396,247.469z"/>
			<path d="M256,0C114.844,0,0,114.844,0,256s114.844,256,256,256s256-114.844,256-256S397.156,0,256,0z M256,490.667
				C126.604,490.667,21.333,385.396,21.333,256S126.604,21.333,256,21.333S490.667,126.604,490.667,256S385.396,490.667,256,490.667
				z"/>
		</g>
	</g>
</g>
<g>
</g>
<g>
</g>
<g>
</g>
<g>
</g>
<g>
</g>
<g>
</g>
<g>
</g>
<g>
</g>
<g>
</g>
<g>
</g>
<g>
</g>
<g>
</g>
<g>
</g>
<g>
</g>
<g>
</g>
</svg>
