<?xml version="1.0" encoding="iso-8859-1"?>
<!-- Generator: Adobe Illustrator 19.0.0, SVG Export Plug-In . SVG Version: 6.00 Build 0)  -->
<svg version="1.1" id="Layer_1" xmlns="http://www.w3.org/2000/svg" xmlns:xlink="http://www.w3.org/1999/xlink" x="0px" y="0px"
	 viewBox="0 0 469.333 469.333" style="enable-background:new 0 0 469.333 469.333;" xml:space="preserve">
<g>
	<g>
		<g>
			<path d="M352,320c-5.896,0-10.667,4.771-10.667,10.667v96.854c0,11.292-9.188,20.479-20.479,20.479
				c-4.885,0-9.625-1.75-13.333-4.927l-140.583-120.5C165.01,320.906,162.542,320,160,320H42.667
				c-11.76,0-21.333-9.573-21.333-21.333v-128c0-11.76,9.573-21.333,21.333-21.333H160c2.542,0,5.01-0.906,6.938-2.573
				l140.594-120.5c3.698-3.177,8.438-4.927,13.323-4.927c11.292,0,20.479,9.188,20.479,20.479v96.854
				c0,5.896,4.771,10.667,10.667,10.667c5.896,0,10.667-4.771,10.667-10.667V41.812C362.667,18.76,343.906,0,320.854,0
				c-9.979,0-19.646,3.573-27.208,10.073L156.052,128H42.667C19.135,128,0,147.135,0,170.667v128
				c0,23.531,19.135,42.667,42.667,42.667h113.385L293.635,459.26c7.573,6.5,17.24,10.073,27.219,10.073
				c23.052,0,41.813-18.76,41.813-41.813v-96.854C362.667,324.771,357.896,320,352,320z"/>
			<path d="M399.083,234.667l67.125-67.125c4.167-4.167,4.167-10.917,0-15.083c-4.167-4.167-10.917-4.167-15.083,0L384,219.583
				l-67.125-67.125c-4.167-4.167-10.917-4.167-15.083,0c-4.167,4.167-4.167,10.917,0,15.083l67.125,67.125l-67.125,67.125
				c-4.167,4.167-4.167,10.917,0,15.083c2.083,2.083,4.813,3.125,7.542,3.125c2.729,0,5.458-1.042,7.542-3.125L384,249.75
				l67.125,67.125c2.083,2.083,4.813,3.125,7.542,3.125c2.729,0,5.458-1.042,7.542-3.125c4.167-4.167,4.167-10.917,0-15.083
				L399.083,234.667z"/>
		</g>
	</g>
</g>
<g>
</g>
<g>
</g>
<g>
</g>
<g>
</g>
<g>
</g>
<g>
</g>
<g>
</g>
<g>
</g>
<g>
</g>
<g>
</g>
<g>
</g>
<g>
</g>
<g>
</g>
<g>
</g>
<g>
</g>
</svg>
