<svg height="512pt" viewBox="-61 0 512 512" width="512pt" xmlns="http://www.w3.org/2000/svg"><path d="m195 300c57.890625 0 105-47.109375 105-105s-47.109375-105-105-105-105 47.109375-105 105 47.109375 105 105 105zm-49.394531-115.605469 34.394531 34.394531 64.394531-64.394531 21.210938 21.210938-85.605469 85.605469-55.605469-55.605469zm0 0"/><path d="m195 512 155.902344-199.871094.175781-.21875c25.460937-33.925781 38.921875-74.355468 38.921875-116.910156 0-107.519531-87.480469-195-195-195s-195 87.480469-195 195c0 42.554688 13.460938 82.984375 39.097656 117.128906zm0-452c74.441406 0 135 60.558594 135 135s-60.558594 135-135 135-135-60.558594-135-135 60.558594-135 135-135zm0 0"/></svg>